<svg width="480" height="480" viewBox="0 0 480 480" xmlns="http://www.w3.org/2000/svg"><title>codewars</title><path d="M439.473.32H40.113c-22 0-40 18-40 40v399.36c0 22 18 40 40 40h399.36c22 0 40-18 40-40V40.32c0-22-18-40-40-40zm9.087 284.873c-1.973 1.944-3.853 3.984-6.527 6.754 3.85 23.133-11.3 36.856-27.916 49.686-17.307 13.364-34.62 26.724-52.14 39.807-3.91 2.92-8.687 4.677-13.104 6.987-10.913 30.136-15.03 33.84-38.153 33.313-5.533 14.873-16.52 20.797-32.503 16.597-1.06-.277-2.707-1.214-3.06-.854-15.544 15.987-33.38 3.667-49.574 2.614-11.966-.777-24.093-8.46-34.876-15.127-9.11-5.633-15.557-15.99-28.507-12.993-.493.113-1.2-.014-1.607-.307-12.483-9.037-27.573-3.487-40.236-6.89-16.427-4.41-31.03-15.89-46.067-24.907-2.263-1.356-2.71-5.843-3.853-8.933-.767-2.07-.774-5.72-1.987-6.133-16.42-5.604-15.8-21.217-21.233-33.71-5.057-11.624-8.567-22.014-2.16-34.084 1.513-2.85 1.446-7.623.163-10.696-8.283-19.79-8.46-19.724-6.427-39.404-16.986-14.476-19.483-25.47-5.68-42.91-5.533-12.523-8.316-25.18 6.79-34.233 1.13-.677 1.507-2.88 1.907-4.453 4.927-19.337 19.54-31.497 34.87-41.007 14.057-8.717 31.17-10.897 40.433-28.483 3.464-6.577 14.204-10.427 16.364-20.434.51-2.363 3.136-4.693 5.363-6.183 11.07-7.41 24-11.22 34.117-21.22 4.25-4.197 16.106-.697 27.36-.697 14.95-18.673 35.483-3.493 54.443-1.07 8.97 1.144 16.99 9.13 25.643 13.624 3.804 1.976 8.047 3.26 12.23 4.293 2.634.65 5.88-.563 8.244.463 13.293 5.77 26.536 9.53 41.01 3.947 1.983-.763 6.43.743 7.566 2.557 9.3 14.863 28.134 10.063 39.52 19.72 3.274 2.776 3.797 8.793 6.024 14.44 10.883 3.556 22.763 7.846 19.89 24.15 11.663 7.196 4.03 22.373 12.733 30.793-9.187 20.077 12.23 36.81 6.213 57.88 2.85 1.973 7.15 3.78 9.677 6.983 3.627 4.604 9.74 12.594 8.217 15.024-9.314 14.886 10.873 31.266-3.167 45.096zm-213.447-181.94c-22.126 8.194-22.393 8.587-17.45 28.427-10.756 4.783-17.26 12.573-11.58 25.64.72 1.66.29 4.767-.87 6.13-5.09 5.967-4.12 11.493-1.49 18.403 1.45 3.81-1.4 9.257-2.3 13.9 4.727 6.504 9.85 12.71 13.89 19.557 1.517 2.567 1.897 8.363.344 9.597-2.397 1.9-7.507 2.526-10.41 1.263-11.587-5.033-23.757-9.66-33.774-17.06-7.836-5.79-13.323-15.113-18.903-23.497-4.073-6.12-6.603-13.266-11.327-23.086 1.05-2.087 3.797-7.247 6.257-12.54 1.733-3.727 5.26-8.444 4.193-11.307-3.14-8.417 2.87-14.897 3.004-21.753.34-17.757 19.963-21.354 23.536-35.93 18.984-8.364 36.537-22.127 59.497-15.317 3.56 1.057 7.453.987 10.707 1.38 4.133 8.37-.317 12.997-4.51 18.5-3.834 5.033-5.82 11.477-8.814 17.693zm137.494 15.477c8.386 7.427 14.843 13.147 22.15 19.617 1.786 7.903 3.833 16.943 5.876 25.98l-3.376 2.646c-14.74-9.61-33.457 1.054-47.71-11.436-1.084-.95-3.244-1.244-4.777-1.01-14.277 2.176-29.26 2.483-42.62 7.28-25.197 9.04-48.25 22.383-64.32 48.276-11.023-11.683-10.907-23.68-8.387-35.553 2.434-11.467 6.514-22.583 10.16-34.827 13.934.157 13.314-12.916 17.117-20.646 31-11.914 60.817-24.907 95.89-12.554 3.32 7.707 9.757 15.68 19.997 12.227zm-134.1 135.75c12.37 26.77 3.42 50.247-7.74 72.367-4.77 6.283-9.567 12.543-14.29 18.86-1.317 1.76-2.42 5.29-3.617 5.286-16.68-.036-26.64 16.554-44.2 16.377-14.083-.14-27.497 2.53-41.91-2.377-16.853-5.74-30.31-14.46-42.883-26.88-10.284-10.156-12.987-20.07-9.277-33.28h33.777c8.086 9.874 19.54 15.264 34.323 6.464 2.433-1.45 6.313-.32 9.483-.717 6.41-.803 12.877-1.453 19.154-2.883 6.203-1.41 12.203-3.717 18.296-5.61 2.097-.65 4.817-.617 6.217-1.967 8.837-8.513 17.537-17.183 25.97-26.097 5.3-5.606 10.057-11.726 16.697-19.543zM101.88 136.04c-1.573 13.857.137 24.713 13.16 31.457-5.113 14.38-6.077 27.023 11.627 32.156.983.284 2.513 1.12 2.57 1.8 1.313 15.794 15.16 17.45 25.286 24.427 16.197 11.163 32.357 18.29 52.22 15.93 3.25-.387 6.744 1.253 10.44 2.02-2.006 15.937-14.106 23.423-23.95 26.937-18.673 6.663-37.636 18.883-59.516 8.21-4.187-2.04-10.667.616-14.354.95-22.833-10.61-33.803-32.594-52.95-46.734.914-9.906 8.27-21.52-4.283-28.206 3.083-30.224 13.903-53.88 39.75-68.947zm278.08 203.2c-2.137-5.713-5.48-10.083-4.79-13.677 2.11-10.993-2.213-18.27-11.697-24.293 4.364-13.42-.233-23.26-12.25-30.403-2.71-1.61-5.006-5.83-5.386-9.094-1.087-9.296-5.967-13.78-14.917-14.896-2.653-.33-6.32-.777-7.607-2.557-12.913-17.847-32.936-17.527-51.58-20.767-4.493-.78-9.013-1.396-13.983-2.156 1.373-16.03 14.243-20.67 22.613-23.75 19.144-7.044 40.01-16.644 60.504-7.91 16.32 6.956 36.396 8.133 47.17 26.42 3.306 5.616 10.926 8.69 16.55 12.91l10.276 31.606v32.85c-8.76 13.247-15.436 31.584-34.903 45.717zm-189.87 56.03c31.243.42 34.583-1.617 41.603-24.613 13.31-4.43 24.744-11.374 24.91-28.417.02-2.08 3.23-4.123 4.96-6.19 2.097-2.507 5.714-4.83 6.044-7.553 2.453-20.304 6.833-40.727-.28-60.98-2.82-8.03-5.974-15.944-10.184-27.12 8.18.823 13.617.316 18.244 2.016 19.673 7.22 35.426 20.427 47.74 36.784 5.793 7.696 7.326 18.596 11.723 30.6-4.84 7.123-7.097 17.446 1.87 27.92-11.807 9.566-17.94 20.82-16.037 33.866-9.353 8.977-17.836 17.124-28.77 27.62-6.093 2.714-15.85 7.054-25.033 11.137-7.913 1.49-15.647 3.657-23.493 4.217-7.554.536-16.71 1.903-22.51-1.55-9.634-5.74-25.097-1.41-30.787-17.737z" fill-rule="evenodd"/></svg>